# xmcd
#
# Track frame offsets: 
#        150
#        17622
#        39335
#        58655
#        73225
#        90926
#        112526
#        125285
#        142925
#        160512
#
# Disc length: 2363 seconds
#
# Revision: 0
# Processed by: cddbd v1.5.2PL0 Copyright (c) Steve Scherf et al.
# Submitted via: ExactAudioCopy v0.99pb5
#
DISCID=6d09390a
DTITLE=Cate Bros - Cate Bros
DYEAR=1975
DGENRE=Blues
TTITLE0=Time For Us
TTITLE1=Union Man
TTITLE2=Standin' On A Mountain Top
TTITLE3=Always Waiting
TTITLE4=When Love Comes
TTITLE5=I Just Wanna Sing
TTITLE6=Can't Change My Heart
TTITLE7=Easy Way Out
TTITLE8=Lady Luck
TTITLE9=Livin' On Dreams
EXTD=
EXTT0=
EXTT1=
EXTT2=
EXTT3=
EXTT4=
EXTT5=
EXTT6=
EXTT7=
EXTT8=
EXTT9=
PLAYORDER=
